# xmcd
#
# Track frame offsets: 
#        150
#        15755
#        34070
#        51835
#        69812
#        89410
#        106190
#        127445
#        146710
#        163265
#        186850
#        206132
#        227892
#
# Disc length: 3231 seconds
#
# Revision: 2
# Processed by: cddbd v1.5.1PL2 Copyright (c) Steve Scherf et al.
# Submitted via: ExactAudioCopy v0.95b3
#
DISCID=b70c9d0d
DTITLE=Dr. John - Dr. John Plays Mac Rebennack
DYEAR=1981
DGENRE=Blues
TTITLE0=Dorothy
TTITLE1=Mac's Boogie
TTITLE2=Memories of Professor Longhair
TTITLE3=The Nearness of You
TTITLE4=Delicado
TTITLE5=Silent Night
TTITLE6=Dance a La Negres
TTITLE7=Wade in the Water
TTITLE8=Honey Dripper
TTITLE9=Big Mac
TTITLE10=New Island Midnight
TTITLE11=Saints
TTITLE12=Pinetop
EXTD=
EXTT0=
EXTT1=
EXTT2=
EXTT3=
EXTT4=
EXTT5=
EXTT6=
EXTT7=
EXTT8=
EXTT9=
EXTT10=
EXTT11=
EXTT12=
PLAYORDER=
